<svg id="Layer_1" data-name="Layer 1" xmlns="http://www.w3.org/2000/svg" viewBox="0 0 230.27 216.3"><defs><style>.cls-1{fill:white;}</style></defs><path fill="white" d="M227.6,134.37a8.83,8.83,0,0,1,5.82-4,10.81,10.81,0,0,1,7.2,1.09,47.21,47.21,0,0,1,10.2,7.05l22.12,18.77a11,11,0,0,0,.87.69,1.63,1.63,0,0,0,2.49-.76c.26-.63-.14-1-.52-1.38-2.24-2.12-4.48-4.26-6.76-6.34a186.64,186.64,0,0,0-17.71-14.39c-.39-.28-.74-.59-1.11-.89A1.12,1.12,0,0,1,250,134a7.6,7.6,0,0,1,5.18-3.15,12.93,12.93,0,0,1,9.52,2,98.39,98.39,0,0,1,15.77,12.32c9.24,8.85,16.37,19.24,22.34,30.48,5.68,10.72,11.42,21.41,17.12,32.12a29.55,29.55,0,0,0,8.5,9.47c6.74,5.19,13.43,10.45,20.12,15.7,2.3,1.8,2.41,2.86.55,5.12q-15.31,18.66-30.63,37.32-5.1,6.21-10.3,12.36c-1.42,1.68-2.34,1.69-4,.28-7.74-6.48-15.51-12.92-23.2-19.45a7.87,7.87,0,0,0-4.6-1.6,173.7,173.7,0,0,1-33-6.89c-9.09-2.81-17-7.64-24.68-13.14a197.65,197.65,0,0,0-18.48-12.24,128.55,128.55,0,0,0-12.55-5.82,20.88,20.88,0,0,1-4-2.13,5.41,5.41,0,0,1-1.62-7.31,10.59,10.59,0,0,1,7.35-5.28A23.34,23.34,0,0,1,204.65,216c4.19,1.87,8.29,3.94,12.4,6a36.3,36.3,0,0,0,11,3.42c3,.42,5.05-1.26,5.62-4.54a18.91,18.91,0,0,0-1.4-10.13,109.05,109.05,0,0,0-17-29.09q-16.5-20.66-33.09-41.23c-3.37-4.21-6.72-8.43-10-12.71a9.33,9.33,0,0,1-1.68-8.74,6.47,6.47,0,0,1,8.83-4.11A14.43,14.43,0,0,1,184.1,118q15.6,15.57,31.19,31.18c5.58,5.6,11.12,11.23,16.69,16.84,1.9,1.92,3.79,3.84,5.7,5.74a1.79,1.79,0,0,0,2.55.35c.78-.47.89-1,.28-1.68s-1.51-1.63-2.28-2.42q-7.08-7.23-14.17-14.44-8.49-8.66-17-17.3a.68.68,0,0,1-.12-1,8.46,8.46,0,0,1,6.89-3.92,12.05,12.05,0,0,1,8.94,2.86c9.13,7.47,17.9,15.34,26.52,23.37q3.51,3.27,7.08,6.48a4.22,4.22,0,0,0,1.42.79,1.32,1.32,0,0,0,1.71-.72,1.74,1.74,0,0,0-.38-1.37,26.65,26.65,0,0,0-2.17-2.08c-7.27-6.69-14.52-13.41-21.83-20.05-2.15-2-4.47-3.72-6.72-5.57Z" transform="translate(-142 -114.3)"/><path class="cls-1" d="M159.34,307.57h-5.13v19.68a4,4,0,0,1-.65,2.52,2.15,2.15,0,0,1-3.39,0,4,4,0,0,1-.66-2.52V307.57h-5.13a2.34,2.34,0,0,1-1.8-.62,2.59,2.59,0,0,1,0-3.3,2.4,2.4,0,0,1,1.77-.61h15a2.39,2.39,0,0,1,1.82.63,2.33,2.33,0,0,1,.59,1.65,2.23,2.23,0,0,1-.6,1.63A2.38,2.38,0,0,1,159.34,307.57Z" transform="translate(-142 -114.3)"/><path class="cls-1" d="M179.86,307.28H169.25v6.65H179a2.14,2.14,0,0,1,1.61.56,2.1,2.1,0,0,1,.53,1.49,2.17,2.17,0,0,1-.53,1.51,2.07,2.07,0,0,1-1.61.58h-9.77v7.7h11a2.17,2.17,0,0,1,1.67.6,2.24,2.24,0,0,1,.57,1.6,2,2,0,0,1-2.24,2.17H167.43a2.74,2.74,0,0,1-2.21-.8,4,4,0,0,1-.68-2.57V306.41a5.25,5.25,0,0,1,.3-1.93,2,2,0,0,1,.95-1.09,3.41,3.41,0,0,1,1.64-.35h12.43a2.18,2.18,0,0,1,1.67.59,2.13,2.13,0,0,1,.55,1.52,2,2,0,0,1-2.22,2.13Z" transform="translate(-142 -114.3)"/><path class="cls-1" d="M206,321.58a8.16,8.16,0,0,1-.55,2.8,10.15,10.15,0,0,1-1.72,3,8.88,8.88,0,0,1-3,2.35,9.37,9.37,0,0,1-4.25.91,12.92,12.92,0,0,1-3.35-.41,8.53,8.53,0,0,1-2.73-1.27,9.68,9.68,0,0,1-2.26-2.26,13.93,13.93,0,0,1-1.57-2.85,17.19,17.19,0,0,1-1-3.38,21.88,21.88,0,0,1-.32-3.8,19.25,19.25,0,0,1,.82-5.86,13,13,0,0,1,2.33-4.43,10.42,10.42,0,0,1,3.57-2.8,10.13,10.13,0,0,1,4.36-1,9.7,9.7,0,0,1,5,1.31,9.57,9.57,0,0,1,3.37,3.25,7,7,0,0,1,1.18,3.65,2.59,2.59,0,0,1-.57,1.66,1.71,1.71,0,0,1-1.38.72,1.74,1.74,0,0,1-1.36-.5,6.63,6.63,0,0,1-1-1.72,8.21,8.21,0,0,0-2.17-3,4.78,4.78,0,0,0-3.07-1,5.32,5.32,0,0,0-4.62,2.57c-1.15,1.71-1.72,4.15-1.72,7.3a15.78,15.78,0,0,0,.76,5.26A6.55,6.55,0,0,0,193,325.2a5.33,5.33,0,0,0,3.26,1,5.2,5.2,0,0,0,3.44-1.18,7.13,7.13,0,0,0,2.11-3.44,6.09,6.09,0,0,1,.75-1.75,1.57,1.57,0,0,1,1.43-.67,1.84,1.84,0,0,1,1.44.68A2.47,2.47,0,0,1,206,321.58Z" transform="translate(-142 -114.3)"/><path class="cls-1" d="M215,305.91v7.76h10.17v-7.76a4.06,4.06,0,0,1,.64-2.5,2,2,0,0,1,1.69-.83,2.12,2.12,0,0,1,1.72.82,4,4,0,0,1,.66,2.51v21.34a4,4,0,0,1-.67,2.52,2.11,2.11,0,0,1-1.71.83,2,2,0,0,1-1.7-.84,4.16,4.16,0,0,1-.63-2.51v-9.11H215v9.11a4,4,0,0,1-.66,2.52,2.12,2.12,0,0,1-1.71.83,2,2,0,0,1-1.7-.84,4.16,4.16,0,0,1-.63-2.51V305.91a4.13,4.13,0,0,1,.62-2.5,2,2,0,0,1,1.71-.83,2.13,2.13,0,0,1,1.72.82A4,4,0,0,1,215,305.91Z" transform="translate(-142 -114.3)"/><path class="cls-1" d="M245.94,303h6.13a14.47,14.47,0,0,1,4.11.52,7.33,7.33,0,0,1,3.11,1.94q3.63,3.63,3.63,11a24.41,24.41,0,0,1-.37,4.45,14.84,14.84,0,0,1-1.12,3.63,11.3,11.3,0,0,1-1.95,2.89,8,8,0,0,1-2.05,1.57,8.11,8.11,0,0,1-2.38.83,15.68,15.68,0,0,1-2.88.25H246a3.39,3.39,0,0,1-1.93-.46,2.08,2.08,0,0,1-.85-1.27,9.53,9.53,0,0,1-.2-2.14V306.41a4,4,0,0,1,.68-2.57A2.77,2.77,0,0,1,245.94,303Zm1.82,4.35v18.38h3.57a17.77,17.77,0,0,0,1.84-.07,5.08,5.08,0,0,0,1.38-.37,3.71,3.71,0,0,0,1.23-.83c1.58-1.55,2.37-4.23,2.37-8a13.53,13.53,0,0,0-1-6,5,5,0,0,0-2.56-2.54,11.07,11.07,0,0,0-3.68-.54Z" transform="translate(-142 -114.3)"/><path class="cls-1" d="M280.69,327.07l-1.11-3.4h-9.45L269,327.14a12.85,12.85,0,0,1-1.11,2.75,1.67,1.67,0,0,1-1.5.71,2.06,2.06,0,0,1-1.57-.76,2.5,2.5,0,0,1-.69-1.72,4.61,4.61,0,0,1,.16-1.14c.11-.4.28-1,.53-1.65l5.94-17.59.61-1.82a10.07,10.07,0,0,1,.76-1.77,3.48,3.48,0,0,1,1.06-1.13,3.26,3.26,0,0,1,3.27,0,3.41,3.41,0,0,1,1.06,1.11,8.2,8.2,0,0,1,.68,1.47c.19.53.42,1.23.71,2.1L285,325.18a9.88,9.88,0,0,1,.72,2.9,2.59,2.59,0,0,1-.68,1.73,2.05,2.05,0,0,1-1.62.79,1.88,1.88,0,0,1-.95-.23,2.12,2.12,0,0,1-.67-.63,6.41,6.41,0,0,1-.58-1.22C281,328,280.84,327.49,280.69,327.07Zm-9.32-7.52h6.94l-3.5-11.18Z" transform="translate(-142 -114.3)"/><path class="cls-1" d="M306.83,322a9,9,0,0,1-1.08,4.42,7.6,7.6,0,0,1-3.18,3.07,10.46,10.46,0,0,1-5,1.11,9.91,9.91,0,0,1-5.68-1.52,8.25,8.25,0,0,1-2.57-2.91,7.39,7.39,0,0,1-1-3.54,2.59,2.59,0,0,1,.6-1.71,1.9,1.9,0,0,1,1.51-.71,1.65,1.65,0,0,1,1.26.56,4.32,4.32,0,0,1,.88,1.64,12.35,12.35,0,0,0,1,2.16A4.14,4.14,0,0,0,295,326a4.71,4.71,0,0,0,2.46.57,5,5,0,0,0,3.4-1.14,3.61,3.61,0,0,0,1.31-2.83,3.29,3.29,0,0,0-.71-2.19,4.5,4.5,0,0,0-1.82-1.29,28.14,28.14,0,0,0-3-.94,19.88,19.88,0,0,1-4.19-1.6,7.07,7.07,0,0,1-2.68-2.49,7.3,7.3,0,0,1-1-3.93,7.5,7.5,0,0,1,1.05-4,6.74,6.74,0,0,1,3-2.67,10.74,10.74,0,0,1,4.66-.94,10.11,10.11,0,0,1,3.71.62,7.48,7.48,0,0,1,2.59,1.65,6.57,6.57,0,0,1,1.5,2.15,5.57,5.57,0,0,1,.48,2.2,2.87,2.87,0,0,1-.59,1.76,1.79,1.79,0,0,1-1.49.79,1.58,1.58,0,0,1-1.23-.47,6.63,6.63,0,0,1-.91-1.55,7,7,0,0,0-1.52-2.39,4,4,0,0,0-2.85-.86,4.43,4.43,0,0,0-2.94.93,2.85,2.85,0,0,0-1.12,2.25,2.55,2.55,0,0,0,.38,1.4,3.21,3.21,0,0,0,1.05,1,6.71,6.71,0,0,0,1.34.67c.46.16,1.21.39,2.25.7a32.28,32.28,0,0,1,3.56,1.18,10.22,10.22,0,0,1,2.71,1.57,6.33,6.33,0,0,1,1.75,2.34A8.5,8.5,0,0,1,306.83,322Z" transform="translate(-142 -114.3)"/><path class="cls-1" d="M325.92,307.57h-5.13v19.68a4,4,0,0,1-.65,2.52,2.06,2.06,0,0,1-1.68.83,2.09,2.09,0,0,1-1.71-.83,4,4,0,0,1-.66-2.52V307.57H311a2.32,2.32,0,0,1-1.79-.62,2.22,2.22,0,0,1-.59-1.63,2.26,2.26,0,0,1,.61-1.67A2.44,2.44,0,0,1,311,303h15a2.39,2.39,0,0,1,1.82.63,2.29,2.29,0,0,1,.59,1.65,2.23,2.23,0,0,1-.6,1.63A2.38,2.38,0,0,1,325.92,307.57Z" transform="translate(-142 -114.3)"/><path class="cls-1" d="M344,327.07l-1.11-3.4h-9.45l-1.11,3.47a12.85,12.85,0,0,1-1.11,2.75,1.67,1.67,0,0,1-1.51.71,2.06,2.06,0,0,1-1.56-.76,2.5,2.5,0,0,1-.69-1.72,4.61,4.61,0,0,1,.16-1.14c.11-.4.28-1,.53-1.65L334,307.74l.61-1.82a10.07,10.07,0,0,1,.76-1.77,3.48,3.48,0,0,1,1.06-1.13,2.89,2.89,0,0,1,1.63-.44,2.93,2.93,0,0,1,1.64.44,3.41,3.41,0,0,1,1.06,1.11,8.2,8.2,0,0,1,.68,1.47c.19.53.42,1.23.71,2.1l6.07,17.48a9.88,9.88,0,0,1,.72,2.9,2.59,2.59,0,0,1-.68,1.73,2.05,2.05,0,0,1-1.62.79,1.88,1.88,0,0,1-.95-.23,2.12,2.12,0,0,1-.67-.63,6.41,6.41,0,0,1-.58-1.22C344.27,328,344.1,327.49,344,327.07Zm-9.32-7.52h6.94l-3.5-11.18Z" transform="translate(-142 -114.3)"/><path class="cls-1" d="M357.17,305.91v9.5l9.25-11.24a9.16,9.16,0,0,1,1.13-1.2,1.88,1.88,0,0,1,1.24-.39,2.07,2.07,0,0,1,1.64.7,2.41,2.41,0,0,1,.63,1.69,3.57,3.57,0,0,1-1.06,2.38l-5.73,6.32,6.6,11a15.29,15.29,0,0,1,1.05,2,4.47,4.47,0,0,1,.35,1.67,2.24,2.24,0,0,1-.62,1.57,2.09,2.09,0,0,1-1.65.67,2.52,2.52,0,0,1-1.6-.49,4,4,0,0,1-1-1.31c-.28-.54-.54-1-.76-1.47l-5.57-10-3.85,4.3v5.6a4,4,0,0,1-.66,2.52,2.13,2.13,0,0,1-1.72.83,2.09,2.09,0,0,1-1.15-.37,2.46,2.46,0,0,1-.86-1,3.65,3.65,0,0,1-.27-1.2c0-.46-.05-1.12-.05-2V305.91a4.13,4.13,0,0,1,.63-2.5,2,2,0,0,1,1.7-.83,2.1,2.1,0,0,1,1.72.82A4,4,0,0,1,357.17,305.91Z" transform="translate(-142 -114.3)"/></svg>